<svg width="32" height="32" viewBox="0 0 32 32" fill="none" xmlns="http://www.w3.org/2000/svg">
<rect width="32" height="32" fill="white"/>
<path d="M17.25 2C17.25 1.30964 16.6904 0.75 16 0.75C15.3096 0.75 14.75 1.30964 14.75 2H17.25ZM14.75 30C14.75 30.6904 15.3096 31.25 16 31.25C16.6904 31.25 17.25 30.6904 17.25 30H14.75ZM14.75 2V30H17.25V2H14.75Z" fill="#213343"/>
<path d="M29.7324 17.25C30.4228 17.25 30.9824 16.6904 30.9824 16C30.9824 15.3096 30.4228 14.75 29.7324 14.75L29.7324 17.25ZM1.99909 14.75C1.30873 14.75 0.749089 15.3096 0.749089 16C0.749089 16.6904 1.30873 17.25 1.99909 17.25L1.99909 14.75ZM29.7324 14.75L1.99909 14.75L1.99909 17.25L29.7324 17.25L29.7324 14.75Z" fill="#213343"/>
</svg>
