<svg width="30" height="30" viewBox="0 0 30 30" fill="none" xmlns="http://www.w3.org/2000/svg">
<path opacity="0.4" fill-rule="evenodd" clip-rule="evenodd" d="M9.27727 24.7754C9.80477 24.7754 10.2335 25.2041 10.2335 25.7316C10.2335 26.2591 9.80477 26.6866 9.27727 26.6866C8.74977 26.6866 8.32227 26.2591 8.32227 25.7316C8.32227 25.2041 8.74977 24.7754 9.27727 24.7754Z" stroke="#213343" stroke-width="1.875" stroke-linecap="round" stroke-linejoin="round"/>
<path opacity="0.4" fill-rule="evenodd" clip-rule="evenodd" d="M23.343 24.7754C23.8705 24.7754 24.2992 25.2041 24.2992 25.7316C24.2992 26.2591 23.8705 26.6866 23.343 26.6866C22.8155 26.6866 22.3867 26.2591 22.3867 25.7316C22.3867 25.2041 22.8155 24.7754 23.343 24.7754Z" stroke="#213343" stroke-width="1.875" stroke-linecap="round" stroke-linejoin="round"/>
<path d="M3.4375 4.0625L6.0375 4.5125L7.24125 18.8538C7.33875 20.0225 8.315 20.92 9.4875 20.92H23.1275C24.2475 20.92 25.1975 20.0975 25.3588 18.9875L26.545 10.79C26.6913 9.77875 25.9075 8.87375 24.8863 8.87375H6.455" stroke="#213343" stroke-width="1.875" stroke-linecap="round" stroke-linejoin="round"/>
<path opacity="0.4" d="M17.6562 13.4937H21.1225" stroke="#213343" stroke-width="1.875" stroke-linecap="round" stroke-linejoin="round"/>
</svg>
