<svg width="28" height="28" viewBox="0 0 28 28" fill="none" xmlns="http://www.w3.org/2000/svg">
<path opacity="0.4" fill-rule="evenodd" clip-rule="evenodd" d="M11.82 10.573C11.4783 10.2313 10.9243 10.2312 10.5825 10.5729C10.2408 10.9145 10.2407 11.4686 10.5824 11.8103L12.7618 13.9901L10.5859 16.166C10.2442 16.5077 10.2442 17.0617 10.5859 17.4035C10.9276 17.7452 11.4816 17.7452 11.8233 17.4035L13.9991 15.2277L16.1777 17.4068C16.5194 17.7485 17.0734 17.7486 17.4152 17.4069C17.7569 17.0653 17.757 16.5112 17.4153 16.1695L15.2365 13.9903L17.414 11.8128C17.7557 11.4711 17.7557 10.9171 17.414 10.5754C17.0723 10.2336 16.5182 10.2336 16.1765 10.5754L13.9992 12.7527L11.82 10.573Z" fill="#213343"/>
<path fill-rule="evenodd" clip-rule="evenodd" d="M19.057 3.20856H8.94315C5.41865 3.20856 3.20898 5.70406 3.20898 9.23556V18.7649C3.20898 22.2964 5.40815 24.7919 8.94315 24.7919H19.0558C22.592 24.7919 24.7923 22.2964 24.7923 18.7649V9.23556C24.7923 5.70406 22.592 3.20856 19.057 3.20856Z" stroke="#213343" stroke-width="1.75" stroke-linecap="round" stroke-linejoin="round"/>
</svg>
