<svg width="18" height="18" viewBox="0 0 18 18" fill="none" xmlns="http://www.w3.org/2000/svg">
<path opacity="0.4" d="M14.4929 7.10059C14.4929 7.10059 14.0856 12.1518 13.8494 14.2796C13.7369 15.2958 13.1091 15.8913 12.0809 15.9101C10.1241 15.9453 8.16511 15.9476 6.20911 15.9063C5.21986 15.8861 4.60261 15.2831 4.49236 14.2848C4.25461 12.1383 3.84961 7.10059 3.84961 7.10059" stroke="#A40F0F" stroke-width="1.125" stroke-linecap="round" stroke-linejoin="round"/>
<path d="M15.531 4.6792H2.8125" stroke="#A40F0F" stroke-width="1.125" stroke-linecap="round" stroke-linejoin="round"/>
<path d="M13.0809 4.67925C12.4922 4.67925 11.9852 4.263 11.8697 3.68625L11.6874 2.77425C11.5749 2.3535 11.1939 2.0625 10.7597 2.0625H7.58492C7.15067 2.0625 6.76967 2.3535 6.65717 2.77425L6.47492 3.68625C6.35942 4.263 5.85242 4.67925 5.26367 4.67925" stroke="#A40F0F" stroke-width="1.125" stroke-linecap="round" stroke-linejoin="round"/>
</svg>
