<svg width="30" height="30" viewBox="0 0 30 30" fill="none" xmlns="http://www.w3.org/2000/svg">
<path fill-rule="evenodd" clip-rule="evenodd" d="M13.7526 7.14353L16.5558 10.1116C16.8307 10.4031 17.2334 10.5413 17.6338 10.4807L21.7177 9.86439C22.7268 9.71254 23.4649 10.7686 22.9674 11.6511L20.9567 15.2238C20.7592 15.5751 20.7484 15.9977 20.928 16.3554L22.7532 19.9937C23.204 20.8939 22.4115 21.9233 21.4117 21.7344L17.3666 20.9747C16.97 20.9001 16.5592 21.0239 16.2689 21.3055L13.3173 24.174C12.5884 24.8839 11.3591 24.4639 11.2383 23.4642L10.748 19.4236C10.7 19.0262 10.4576 18.6799 10.0988 18.4963L6.44873 16.6297C5.54646 16.1691 5.57805 14.8811 6.50302 14.45L10.2473 12.7069C10.6145 12.5362 10.8748 12.1982 10.9429 11.8033L11.638 7.78085C11.8102 6.78616 13.0594 6.40966 13.7526 7.14353Z" fill="#FFEB37" stroke="#FFEB37" stroke-width="1.5" stroke-linecap="round" stroke-linejoin="round"/>
<path d="M20.5 6.5C20.6667 6.16667 21.2 5.5 22 5.5" stroke="#FFEB37" stroke-width="1.75" stroke-linecap="round" stroke-linejoin="round"/>
<path d="M29.1024 16.7229C28.6676 17.1466 27.4382 17.8975 25.9992 17.5119" stroke="#FFEB37" stroke-width="1.75" stroke-linecap="round" stroke-linejoin="round"/>
<path d="M17.1674 24.9998C17.5488 25.1892 18.2893 25.7291 18.2004 26.3732" stroke="#FFEB37" stroke-width="1.75" stroke-linecap="round" stroke-linejoin="round"/>
<path d="M5.54397 20.7041C4.93609 21.0511 3.57642 21.5961 3.0008 21" stroke="#FFEB37" stroke-width="1.75" stroke-linecap="round" stroke-linejoin="round"/>
<path d="M6.00878 8.8594C5.36682 8.58042 4.11605 7.81798 4.24867 7.00002" stroke="#FFEB37" stroke-width="1.75" stroke-linecap="round" stroke-linejoin="round"/>
</svg>
