<svg width="279" height="279" viewBox="0 0 279 279" fill="none" xmlns="http://www.w3.org/2000/svg">
<path d="M143.077 91.6012C143.418 90.7798 144.582 90.7799 144.923 91.6012L156.062 118.382C157.358 121.498 160.289 123.627 163.653 123.897L192.565 126.215C193.452 126.286 193.811 127.392 193.136 127.971L171.108 146.84C168.544 149.036 167.425 152.481 168.208 155.764L174.938 183.977C175.145 184.842 174.203 185.526 173.444 185.063L148.691 169.944C145.811 168.185 142.189 168.185 139.309 169.944L114.556 185.063C113.797 185.526 112.855 184.842 113.062 183.977L119.792 155.764C120.575 152.481 119.456 149.036 116.892 146.84L94.8644 127.971C94.1888 127.392 94.5484 126.286 95.435 126.215L95.1154 122.228L95.435 126.215L124.347 123.897C127.711 123.627 130.642 121.498 131.938 118.382L143.077 91.6012Z" fill="#FFC839" stroke="#FFC839" stroke-width="8"/>
<path d="M202.639 65.4659C197.093 70.658 189.982 80.4655 186 87.9654C191.546 83.0616 203.407 72.3888 206.478 68.9273C210.318 64.6005 206.087 62.2376 202.639 65.4659Z" fill="#FFC839"/>
<path d="M242.104 169.794C234.472 170.1 222.462 168.268 214.321 165.825C221.75 165.316 237.769 164.36 242.41 164.604C248.211 164.909 246.85 169.604 242.104 169.794Z" fill="#FFC839"/>
<path d="M138.807 235.212C137.648 227.662 138.123 215.523 139.638 207.159C140.976 214.485 143.722 230.295 143.999 234.934C144.346 240.733 139.528 239.907 138.807 235.212Z" fill="#FFC839"/>
<path d="M38.2116 152.226C45.8204 151.548 57.4947 148.189 65.2552 144.721C57.8221 145.17 41.813 146.279 37.2421 147.118C31.5284 148.166 33.4807 152.647 38.2116 152.226Z" fill="#FFC839"/>
<path d="M81.6171 61.6108C84.5664 68.6574 91.3023 78.7669 96.957 85.1133C94.2782 78.1651 88.3748 63.2431 86.192 59.1404C83.4635 54.012 79.7833 57.2295 81.6171 61.6108Z" fill="#FFC839"/>
</svg>
