<svg width="214" height="184" viewBox="0 0 214 184" fill="none" xmlns="http://www.w3.org/2000/svg">
<path d="M111.923 35.6012L123.062 62.382C124.358 65.4981 127.289 67.6273 130.653 67.897L159.565 70.2148C160.452 70.2859 160.811 71.3924 160.136 71.9711L138.108 90.8405C135.544 93.036 134.425 96.481 135.208 99.7638L141.938 127.977C142.145 128.842 141.203 129.526 140.444 129.063L115.691 113.944C112.811 112.185 109.189 112.185 106.309 113.944L81.5559 129.063C80.7967 129.526 79.8555 128.842 80.0619 127.977L86.7918 99.7638C87.5749 96.481 86.4555 93.036 83.8924 90.8405L61.8644 71.9711C61.1888 71.3924 61.5484 70.2859 62.435 70.2148L91.3472 67.897C94.7113 67.6273 97.6418 65.4981 98.9379 62.382L110.077 35.6012C110.418 34.7799 111.582 34.7799 111.923 35.6012Z" fill="#FFC839" stroke="#FFC839" stroke-width="8"/>
<path d="M169.639 9.46586C164.093 14.658 156.982 24.4655 153 31.9654C158.546 27.0616 170.407 16.3888 173.478 12.9273C177.318 8.6005 173.087 6.23759 169.639 9.46586Z" fill="#FFC839"/>
<path d="M209.104 113.794C201.472 114.1 189.462 112.268 181.321 109.825C188.75 109.316 204.769 108.36 209.41 108.604C215.211 108.909 213.85 113.604 209.104 113.794Z" fill="#FFC839"/>
<path d="M105.807 179.212C104.648 171.662 105.123 159.523 106.638 151.159C107.976 158.485 110.722 174.295 110.999 178.934C111.346 184.733 106.528 183.907 105.807 179.212Z" fill="#FFC839"/>
<path d="M5.2116 96.2259C12.8204 95.5482 24.4947 92.1889 32.2552 88.7208C24.8221 89.1705 8.81305 90.2794 4.24209 91.1178C-1.4716 92.1657 0.480745 96.6472 5.2116 96.2259Z" fill="#FFC839"/>
<path d="M48.6171 5.61079C51.5664 12.6574 58.3023 22.7669 63.957 29.1133C61.2782 22.1651 55.3748 7.24306 53.192 3.14039C50.4635 -1.98795 46.7833 1.22949 48.6171 5.61079Z" fill="#FFC839"/>
</svg>
