<svg width="22" height="22" viewBox="0 0 22 22" fill="none" xmlns="http://www.w3.org/2000/svg">
<path fill-rule="evenodd" clip-rule="evenodd" d="M13.5077 2.53143H7.41001C5.52259 2.53143 3.89551 4.06135 3.89551 5.94968V15.8946C3.89551 17.8893 5.41534 19.355 7.41001 19.355H14.7323C16.6207 19.355 18.1515 17.7829 18.1515 15.8946V7.36777L13.5077 2.53143Z" stroke="white" stroke-width="1.375" stroke-linecap="round" stroke-linejoin="round"/>
<path d="M13.2666 2.52069V5.18727C13.2666 6.48894 14.3199 7.54494 15.6215 7.54769C16.8279 7.55044 18.0626 7.55136 18.146 7.54586" stroke="white" stroke-width="1.375" stroke-linecap="round" stroke-linejoin="round"/>
<path opacity="0.4" fill-rule="evenodd" clip-rule="evenodd" d="M11.5448 9.59222C11.5448 9.21253 11.237 8.90472 10.8573 8.90472C10.4776 8.90472 10.1698 9.21253 10.1698 9.59222V11.1503H8.61035C8.23066 11.1503 7.92285 11.4581 7.92285 11.8378C7.92285 12.2175 8.23066 12.5253 8.61035 12.5253H10.1698V14.0848C10.1698 14.4645 10.4776 14.7723 10.8573 14.7723C11.237 14.7723 11.5448 14.4645 11.5448 14.0848V12.5253H13.1029C13.4826 12.5253 13.7904 12.2175 13.7904 11.8378C13.7904 11.4581 13.4826 11.1503 13.1029 11.1503H11.5448V9.59222Z" fill="white"/>
</svg>
