<svg width="21" height="21" viewBox="0 0 21 21" fill="none" xmlns="http://www.w3.org/2000/svg">
<g id="Iconly/Two-tone/Filter">
<g id="Filter">
<path id="Stroke 1" opacity="0.4" d="M9.66732 15.0834H3.83398" stroke="#213343" stroke-width="1.25" stroke-linecap="round" stroke-linejoin="round"/>
<path id="Stroke 3" fill-rule="evenodd" clip-rule="evenodd" d="M17.1676 15.0834C17.1676 16.234 16.2349 17.1667 15.0843 17.1667C13.9337 17.1667 13.001 16.234 13.001 15.0834C13.001 13.9319 13.9337 13.0001 15.0843 13.0001C16.2349 13.0001 17.1676 13.9319 17.1676 15.0834Z" stroke="#213343" stroke-width="1.25" stroke-linecap="round" stroke-linejoin="round"/>
<path id="Stroke 5" opacity="0.4" d="M11.334 5.91673H17.1673" stroke="#213343" stroke-width="1.25" stroke-linecap="round" stroke-linejoin="round"/>
<path id="Stroke 7" fill-rule="evenodd" clip-rule="evenodd" d="M3.83398 5.91671C3.83398 7.06816 4.76672 8.00004 5.91732 8.00004C7.06792 8.00004 8.00065 7.06816 8.00065 5.91671C8.00065 4.76611 7.06792 3.83337 5.91732 3.83337C4.76672 3.83337 3.83398 4.76611 3.83398 5.91671Z" stroke="#213343" stroke-width="1.25" stroke-linecap="round" stroke-linejoin="round"/>
</g>
</g>
</svg>
